<svg width="299" height="291" viewBox="0 0 299 291" fill="none" xmlns="http://www.w3.org/2000/svg">
<rect y="285" width="299" height="6" fill="white"/>
<path d="M53 38.5L86.4982 5L94.5 5L53 46.5L53 38.5Z" fill="white"/>
<path d="M53 0H233C234.105 0 235 0.895431 235 2V5H53V0Z" fill="white"/>
<path d="M48 2C48 0.895433 48.8954 0 50 0H53V285H48V2Z" fill="white"/>
<rect x="230" y="5" width="5" height="40" fill="white"/>
<circle cx="232.5" cy="72.5" r="25" stroke="white" stroke-width="5"/>
<rect x="230" y="99" width="5" height="69" fill="white"/>
<path d="M234.428 104.752L235 97.3241L273.746 135.455C274.886 136.576 274.893 138.412 273.762 139.542C272.643 140.661 270.831 140.667 269.705 139.556L234.428 104.752Z" fill="white"/>
<path d="M232.428 171.752L232 164L271.721 202.463C272.872 203.578 272.887 205.418 271.754 206.551C270.64 207.665 268.835 207.671 267.713 206.564L232.428 171.752Z" fill="white"/>
<path d="M232.387 171.752L232.387 163.5L193.059 202.451C191.923 203.576 191.919 205.409 193.049 206.539C194.17 207.66 195.985 207.666 197.113 206.553L232.387 171.752Z" fill="white"/>
<path d="M231.158 104.74L230.574 97.3241L191.962 135.321C190.822 136.442 190.815 138.278 191.946 139.409C193.065 140.527 194.877 140.534 196.003 139.422L231.158 104.74Z" fill="white"/>
</svg>
